<svg id="icon-facebook" xml:space="preserve" viewBox="0 0 40.9 40.9" xmlns="http://www.w3.org/2000/svg"><path d="M39.9 14.1C37.2 5.7 29.3 0 20.5 0S3.7 5.7 1 14.1c-2.7 8.5.3 17.7 7.4 22.9 7.2 5.2 16.9 5.2 24.1 0 7.2-5.2 10.2-14.4 7.4-22.9zm-8.5 21.4c-6.5 4.7-15.4 4.7-21.9 0C3 30.8.3 22.4 2.8 14.7 5.3 7 12.4 1.8 20.5 1.8S35.7 7 38.2 14.7s-.3 16.1-6.8 20.8z"></path><path d="M21.9 15.8v2.3H25c-.1 1.1-.3 2.2-.4 3.2h-2.7v8.1h-3.4v-8.1h-2.8v-3.2h2.8v-.2V16c0-.4 0-.8.1-1.2.2-1 .6-1.8 1.5-2.4.7-.5 1.5-.7 2.4-.7h1.7c.3 0 .6.1.9.1v2.9h-1.9c-.7-.1-1.3.1-1.3 1.1z"></path></svg>