<svg id="icon-instagram" xml:space="preserve" viewBox="0 0 40.9 40.9" xmlns="http://www.w3.org/2000/svg"><path d="M39.9 14.1C37.2 5.7 29.3 0 20.5 0S3.7 5.7 1 14.1c-2.7 8.5.3 17.7 7.4 22.9 7.2 5.2 16.9 5.2 24.1 0s10.2-14.4 7.4-22.9zm-8.5 21.4c-6.5 4.7-15.4 4.7-21.9 0S.3 22.4 2.8 14.7 12.4 1.8 20.5 1.8 35.7 7 38.2 14.7s-.3 16.1-6.8 20.8z"></path><path d="M25.6 12.9H15.3c-1.3 0-2.3 1-2.3 2.4v10.3c0 1.3 1 2.3 2.3 2.3h10.3c1.3 0 2.3-1 2.3-2.3V15.3c.1-1.3-1-2.4-2.3-2.4zM23.7 15c0-.2.2-.4.4-.4h1.8c.2 0 .4.2.4.4v1.8c0 .2-.2.4-.4.4h-1.8c-.2 0-.4-.2-.4-.4V15zm-6 4.4c.4-1.1 1.5-1.9 2.8-1.9s2.3.8 2.8 1.9c.1.3.2.7.2 1.1 0 1.6-1.3 3-3 3s-3-1.3-3-3c0-.4 0-.8.2-1.1zm8.7 6.2c0 .4-.3.8-.8.8H15.3c-.4 0-.8-.3-.8-.8v-6.2H16c-.1.3-.1.7-.1 1.1 0 2.5 2 4.6 4.6 4.6 2.5 0 4.6-2 4.6-4.6 0-.4 0-.7-.1-1.1h1.5v6.2z"></path></svg>