<svg id="icon-linkedin" xml:space="preserve" viewBox="0 0 40.9 40.9" xmlns="http://www.w3.org/2000/svg"><path d="M39.9 14.1C37.2 5.7 29.3 0 20.5 0S3.7 5.7 1 14.1c-2.7 8.5.3 17.7 7.4 22.9 7.2 5.2 16.9 5.2 24.1 0 7.2-5.2 10.2-14.4 7.4-22.9zm-8.5 21.4c-6.5 4.7-15.4 4.7-21.9 0C3 30.8.3 22.4 2.8 14.7 5.3 7 12.4 1.8 20.5 1.8S35.7 7 38.2 14.7s-.3 16.1-6.8 20.8z"></path><path d="M14.1 17.3h3.4v10.8h-3.4zM17.7 13.9c0 1.1-.9 1.9-1.9 1.9-1.1 0-2-.9-2-1.9 0-1.1.9-1.9 2-1.9 1 0 1.9.8 1.9 1.9zM30 22.2v5.9h-3.4v-5.3c0-1.3 0-2.9-1.7-2.9-1.8 0-2 1.4-2 2.8V28h-3.4V17.3h3.2v1.5h.1c.4-.8 1.5-1.8 3.2-1.8 3.4.1 4 2.3 4 5.2z"></path></svg>