<svg xmlns="http://www.w3.org/2000/svg" viewBox="0 0 312.37 57.95"><defs><style>.cls-1{fill:#37383d;}</style></defs><title>Logo-Positief-Grijs</title><g id="Layer_2" data-name="Layer 2"><g id="Layer_1-2" data-name="Layer 1"><path class="cls-1" d="M255.1,42.43V25a1.44,1.44,0,0,1,1.44-1.44h4.31a1.45,1.45,0,0,0,1.45-1.44V13.87a1.45,1.45,0,0,0-1.45-1.44h-4.31A1.44,1.44,0,0,1,255.1,11V1.44A1.45,1.45,0,0,0,253.66,0H243.54a1.44,1.44,0,0,0-1.44,1.44V11a1.45,1.45,0,0,1-1.45,1.44h-1.39a1.44,1.44,0,0,0-1.44,1.44v8.24a1.44,1.44,0,0,0,1.44,1.44h1.39A1.45,1.45,0,0,1,242.1,25v24a8.64,8.64,0,0,0,8.62,8.63h4.38Z"/><path class="cls-1" d="M92.52,42.43V25A1.45,1.45,0,0,1,94,23.55h4.31a1.44,1.44,0,0,0,1.44-1.44V13.87a1.44,1.44,0,0,0-1.44-1.44H94A1.45,1.45,0,0,1,92.52,11V1.45A1.43,1.43,0,0,0,91.08,0H81a1.44,1.44,0,0,0-1.44,1.44V11a1.45,1.45,0,0,1-1.44,1.44h-1.4a1.45,1.45,0,0,0-1.44,1.44v8.24a1.45,1.45,0,0,0,1.44,1.44h1.4A1.45,1.45,0,0,1,79.52,25V49a8.63,8.63,0,0,0,8.62,8.62h4.38Z"/><path class="cls-1" d="M288.9,11a23.47,23.47,0,1,0,23.47,23.47A23.49,23.49,0,0,0,288.9,11Zm0,34.9a11.44,11.44,0,1,1,11.44-11.43A11.45,11.45,0,0,1,288.9,45.92Z"/><path class="cls-1" d="M213.66,11a24.13,24.13,0,0,0-18,8A23.26,23.26,0,0,0,190,37.68a23.75,23.75,0,0,0,19.19,19.84,24.53,24.53,0,0,0,4.44.41c7.29,0,13.53-3,18.67-8.74l.29-.35-3-3.11A8.92,8.92,0,0,0,219,44.18,11.38,11.38,0,0,1,205.43,42a10.85,10.85,0,0,1-3-8.36,11.19,11.19,0,0,1,8.26-9.83,11.37,11.37,0,0,1,11.38,3.36,2,2,0,0,0,1.46.66,2,2,0,0,0,1.42-.59L231,20.91a1.87,1.87,0,0,0,0-2.61A24.21,24.21,0,0,0,213.66,11Z"/><path class="cls-1" d="M160,11a23.48,23.48,0,0,0-4.42,46.54A23.82,23.82,0,0,0,171.41,55l.3-.17L172,55a10.77,10.77,0,0,0,7,2.59h3.4V14.69a2.28,2.28,0,0,0-2.24-2.31l-12.38,0A23.37,23.37,0,0,0,160,11Zm.24,35a11.54,11.54,0,1,1,11.53-11.54A11.55,11.55,0,0,1,160.23,46Z"/><path class="cls-1" d="M1.44,12.38H11.56A1.44,1.44,0,0,1,13,13.82V57.57H8.66A8.66,8.66,0,0,1,0,48.91V13.82a1.44,1.44,0,0,1,1.44-1.44"/><path class="cls-1" d="M131.27,12.38H109.53a1.44,1.44,0,0,0-1.45,1.44V57.57h4.35a8.42,8.42,0,0,0,8.37-8.66V47c0-.27,0-.54,0-.81V33.61c0-7.18,5.29-10.26,9.93-10.26h.82a1.27,1.27,0,0,0,1.3-1.28V13.84C132.89,13,132.37,12.38,131.27,12.38Z"/><path class="cls-1" d="M65.92,29.25A18.26,18.26,0,0,0,47.66,11a32.48,32.48,0,0,0-8,1.39H27.89a1.43,1.43,0,0,0-1.44,1.44V48.9a8.66,8.66,0,0,0,8.66,8.66h4.34l0-27.24h0a6.71,6.71,0,1,1,13.41.08l0,18.5a8.66,8.66,0,0,0,8.66,8.66h4.34Z"/><path class="cls-1" d="M255.1,42.43V25a1.44,1.44,0,0,1,1.44-1.44h4.31a1.45,1.45,0,0,0,1.45-1.44V13.87a1.45,1.45,0,0,0-1.45-1.44h-4.31A1.44,1.44,0,0,1,255.1,11V1.44A1.45,1.45,0,0,0,253.66,0H243.54a1.44,1.44,0,0,0-1.44,1.44V11a1.45,1.45,0,0,1-1.45,1.44h-1.39a1.44,1.44,0,0,0-1.44,1.44v8.24a1.44,1.44,0,0,0,1.44,1.44h1.39A1.45,1.45,0,0,1,242.1,25v24a8.64,8.64,0,0,0,8.62,8.63h4.38Z"/><path class="cls-1" d="M92.52,42.43V25A1.45,1.45,0,0,1,94,23.55h4.31a1.44,1.44,0,0,0,1.44-1.44V13.87a1.44,1.44,0,0,0-1.44-1.44H94A1.45,1.45,0,0,1,92.52,11V1.45A1.43,1.43,0,0,0,91.08,0H81a1.44,1.44,0,0,0-1.44,1.44V11a1.45,1.45,0,0,1-1.44,1.44h-1.4a1.45,1.45,0,0,0-1.44,1.44v8.24a1.45,1.45,0,0,0,1.44,1.44h1.4A1.45,1.45,0,0,1,79.52,25V49a8.63,8.63,0,0,0,8.62,8.62h4.38Z"/><path class="cls-1" d="M288.9,11a23.47,23.47,0,1,0,23.47,23.47A23.49,23.49,0,0,0,288.9,11Zm0,34.9a11.44,11.44,0,1,1,11.44-11.43A11.45,11.45,0,0,1,288.9,45.92Z"/><path class="cls-1" d="M213.66,11a24.13,24.13,0,0,0-18,8A23.26,23.26,0,0,0,190,37.68a23.75,23.75,0,0,0,19.19,19.84,24.53,24.53,0,0,0,4.44.41c7.29,0,13.53-3,18.67-8.74l.29-.35-3-3.11A8.92,8.92,0,0,0,219,44.18,11.38,11.38,0,0,1,205.43,42a10.85,10.85,0,0,1-3-8.36,11.19,11.19,0,0,1,8.26-9.83,11.37,11.37,0,0,1,11.38,3.36,2,2,0,0,0,1.46.66,2,2,0,0,0,1.42-.59L231,20.91a1.87,1.87,0,0,0,0-2.61A24.21,24.21,0,0,0,213.66,11Z"/><path class="cls-1" d="M160,11a23.48,23.48,0,0,0-4.42,46.54A23.82,23.82,0,0,0,171.41,55l.3-.17L172,55a10.77,10.77,0,0,0,7,2.59h3.4V14.69a2.28,2.28,0,0,0-2.24-2.31l-12.38,0A23.37,23.37,0,0,0,160,11Zm.24,35a11.54,11.54,0,1,1,11.53-11.54A11.55,11.55,0,0,1,160.23,46Z"/><path class="cls-1" d="M1.44,12.38H11.56A1.44,1.44,0,0,1,13,13.82V57.57H8.66A8.66,8.66,0,0,1,0,48.91V13.82a1.44,1.44,0,0,1,1.44-1.44"/><path class="cls-1" d="M131.27,12.38H109.53a1.44,1.44,0,0,0-1.45,1.44V57.57h4.35a8.42,8.42,0,0,0,8.37-8.66V47c0-.27,0-.54,0-.81V33.61c0-7.18,5.29-10.26,9.93-10.26h.82a1.27,1.27,0,0,0,1.3-1.28V13.84C132.89,13,132.37,12.38,131.27,12.38Z"/><path class="cls-1" d="M65.92,29.25A18.26,18.26,0,0,0,47.66,11a32.48,32.48,0,0,0-8,1.39H27.89a1.43,1.43,0,0,0-1.44,1.44V48.9a8.66,8.66,0,0,0,8.66,8.66h4.34l0-27.24h0a6.71,6.71,0,1,1,13.41.08l0,18.5a8.66,8.66,0,0,0,8.66,8.66h4.34Z"/></g></g></svg>